<?xml version="1.0" standalone="no"?>
<!DOCTYPE svg PUBLIC "-//W3C//DTD SVG 20010904//EN"
 "http://www.w3.org/TR/2001/REC-SVG-20010904/DTD/svg10.dtd">
<svg version="1.0" xmlns="http://www.w3.org/2000/svg"
 width="291.000000pt" height="291.000000pt" viewBox="0 0 291.000000 291.000000"
 preserveAspectRatio="xMidYMid meet">
<metadata>
Created by potrace 1.11, written by Peter Selinger 2001-2013
</metadata>
<g transform="translate(0.000000,291.000000) scale(0.100000,-0.100000)"
fill="#000000" stroke="none">
<path d="M1315 2904 c-385 -55 -637 -176 -886 -424 -285 -284 -424 -619 -424
-1025 0 -405 140 -742 424 -1025 216 -215 442 -337 743 -402 149 -32 418 -31
568 1 299 64 528 187 741 400 213 213 336 442 400 741 19 87 23 136 23 285 0
149 -4 198 -23 285 -64 299 -187 528 -400 741 -213 213 -452 342 -741 400 -91
19 -356 33 -425 23z m-435 -1273 l215 -454 3 456 2 457 110 0 110 0 0 -635 0
-636 -141 3 -141 3 -212 442 c-116 243 -214 445 -218 449 -5 4 -8 -196 -8
-444 l0 -452 -110 0 -110 0 0 635 0 636 142 -3 142 -3 216 -454z m1382 435
c65 -24 138 -93 171 -159 54 -112 55 -284 1 -394 -28 -59 -108 -136 -160 -155
-19 -6 -34 -15 -34 -19 0 -3 63 -118 140 -254 77 -136 140 -252 140 -257 0 -5
-61 -7 -137 -6 l-138 3 -136 250 -136 250 -72 3 -71 3 0 -256 0 -255 -115 0
-115 0 0 636 0 635 308 -3 c265 -3 313 -6 354 -22z"/>
<path d="M1830 1710 l0 -150 155 0 c175 0 203 8 232 63 23 43 22 132 -1 175
-27 53 -63 62 -236 62 l-150 0 0 -150z"/>
</g>
</svg>
